<?xml version="1.0" encoding="utf-8"?>
<!-- Generator: Adobe Illustrator 25.3.1, SVG Export Plug-In . SVG Version: 6.00 Build 0)  -->
<svg version="1.1" id="Layer_1" xmlns="http://www.w3.org/2000/svg" xmlns:xlink="http://www.w3.org/1999/xlink" x="0px" y="0px"
	 viewBox="0 0 800 800" style="enable-background:new 0 0 800 800;" xml:space="preserve">
<style type="text/css">
	.st0{fill:#FFFFFF;}
</style>
<g id="Layer_2">
</g>
<rect x="140.7" y="138.7" class="st0" width="536.4" height="536.4"/>
<path d="M700,66.7H100c-18.4,0-33.3,14.9-33.3,33.3v600c0,18.4,14.9,33.3,33.3,33.3h600c18.4,0,33.3-14.9,33.3-33.3V100
	C733.3,81.6,718.4,66.7,700,66.7z M590.6,357.5L590.6,357.5c-3.6,0.4-7.3,0.5-10.9,0.6c-40.2,0.1-77.7-20.2-99.7-53.8v183.1
	c0,74.8-60.6,135.4-135.3,135.4s-135.4-60.6-135.4-135.3c0-74.8,60.6-135.4,135.3-135.4c0,0,0,0,0.1,0c2.8,0,5.6,0.3,8.4,0.4v66.7
	c-37.8-4.6-72.1,22.3-76.7,60.1c-4.6,37.8,22.3,72.1,60.1,76.7c2.7,0.3,5.5,0.5,8.2,0.5c38.6,0.7,70.6-29.6,72-68.2l0.7-311h63.8
	c6,57.2,52.1,101.9,109.5,106.1V357.5z"/>
</svg>
